PathFileType	4	(X/Y/Z)	US003Walk_3.trc	
DataRate	CameraRate	NumFrames	NumMarkers	Units	OrigDataRate	OrigDataStartFrame	OrigNumFrames	
100.00	100.00	11	22	mm	100.00	1006	99	
Frame#	Time	LFEO			LFEP			LTIO			RFEO			RFEP			RTIO			LASI			RASI			LPSI			RPSI			LTHI			LKNE			LTIB			LANK			LHEE			LTOE			RTHI			RKNE			RTIB			RANK			RHEE			RTOE			
		X1	Y1	Z1	X2	Y2	Z2	X3	Y3	Z3	X4	Y4	Z4	X5	Y5	Z5	X6	Y6	Z6	X7	Y7	Z7	X8	Y8	Z8	X9	Y9	Z9	X10	Y10	Z10	X11	Y11	Z11	X12	Y12	Z12	X13	Y13	Z13	X14	Y14	Z14	X15	Y15	Z15	X16	Y16	Z16	X17	Y17	Z17	X18	Y18	Z18	X19	Y19	Z19	X20	Y20	Z20	X21	Y21	Z21	X22	Y22	Z22	

40	0.390	1190.10120	372.85300	-459.14316	1082.44336	595.98444	-458.95041	1137.80127	116.49514	-475.92587	1061.20227	355.62271	-341.84827	1075.25269	604.47729	-326.49277	964.43817	113.62351	-327.91885	1136.00513	636.81006	-480.88068	1125.04102	648.20062	-303.60303	1019.05475	677.74060	-435.92517	1016.54340	683.75903	-376.04471	1145.83716	447.19464	-554.80890	1186.82349	371.31128	-505.00027	1165.29285	219.30661	-560.91992	1140.38965	118.05261	-507.78290	1089.64172	134.32895	-490.57681	1192.94983	46.83257	-455.51630	1067.89050	445.68228	-242.68904	1061.83655	352.72342	-295.44302	1033.11987	188.70717	-259.41672	978.26178	109.77458	-298.75821	931.07294	134.51054	-315.24307	1015.29541	34.53939	-350.70560 
41	0.400	1199.88757	373.03021	-459.02060	1089.72156	594.91907	-459.08627	1157.22339	114.87412	-476.47885	1065.58545	355.04211	-341.98734	1081.92114	603.78827	-326.68784	965.82715	114.18359	-328.13181	1143.29187	635.79694	-480.91699	1131.50903	647.69086	-303.68832	1026.05286	676.55719	-436.56726	1023.31396	682.81769	-376.75140	1154.38501	446.40717	-554.70984	1196.40613	371.28821	-504.85553	1180.80103	218.86269	-561.20868	1159.73755	116.61272	-508.33243	1108.23010	130.70599	-491.21109	1215.18384	47.17437	-456.45828	1073.02063	445.13229	-242.86392	1066.15161	352.15057	-295.58078	1035.39966	188.47859	-259.54779	979.57684	110.16695	-298.95877	932.74182	135.56215	-315.59769	1015.51349	34.39991	-350.74310 
42	0.410	1209.47961	372.88028	-458.68857	1097.36682	593.82935	-459.32843	1176.37488	113.19476	-477.15460	1070.26465	354.38986	-342.17551	1088.82959	603.04553	-326.99908	967.37878	114.77702	-328.33704	1150.94031	634.79535	-480.99387	1138.17004	647.15137	-303.84848	1033.37537	675.29456	-437.35748	1030.33752	681.79846	-377.59976	1162.95447	445.27917	-554.48993	1205.80200	370.88162	-504.49771	1196.49829	218.30986	-561.43359	1178.96436	115.12852	-508.99100	1126.70801	127.09901	-492.29236	1236.67419	47.36031	-457.17172	1078.39941	444.53183	-243.10577	1070.74976	351.52115	-295.76660	1037.88147	188.24178	-259.68127	981.05017	110.59227	-299.15094	934.59021	136.69347	-315.95560	1015.77521	34.24683	-350.77206 
43	0.420	1218.88550	372.36679	-458.13293	1105.41003	592.69373	-459.69867	1195.07483	111.41489	-477.95593	1075.29480	353.62787	-342.39410	1096.00012	602.21924	-327.45050	969.11932	115.39828	-328.53143	1158.97729	633.79126	-481.13120	1145.03821	646.55682	-304.09955	1041.04712	673.92102	-438.30634	1037.63013	680.66705	-378.60138	1171.62573	443.80713	-554.15387	1215.05176	370.06686	-503.91510	1212.31519	217.64471	-561.56531	1197.90308	113.57257	-509.75751	1144.91589	123.53310	-493.85419	1257.20874	47.29854	-457.64148	1084.04944	443.85934	-243.40666	1075.67676	350.80597	-295.98138	1040.56348	187.96933	-259.80621	982.69763	111.04600	-299.32642	936.65247	137.89554	-316.31934	1016.08893	34.07819	-350.79352 
44	0.430	1228.12146	371.46265	-457.35443	1113.88440	591.48840	-460.21103	1213.09570	109.49571	-478.90506	1080.73816	352.71274	-342.61801	1103.44946	601.27484	-328.05893	971.07349	116.03565	-328.71515	1167.43347	632.76672	-481.33954	1152.12219	645.87592	-304.44669	1049.09045	672.40887	-439.42258	1045.20776	679.38745	-379.76727	1180.50085	442.01361	-553.71198	1224.21082	368.83813	-503.11264	1228.14722	216.85448	-561.57593	1216.33923	111.92095	-510.64764	1162.64978	120.03607	-495.93216	1276.53601	46.90458	-457.88068	1089.98242	443.08771	-243.75609	1080.97888	349.97186	-296.19949	1043.44348	187.63876	-259.90576	984.53064	111.51765	-299.47910	938.96973	139.15640	-316.69467	1016.46057	33.89122	-350.80853 
45	0.440	1237.21130	370.15662	-456.37625	1122.81409	590.18982	-460.86771	1230.15686	107.41187	-480.04462	1086.65149	351.59906	-342.81927	1111.18677	600.17877	-328.83032	973.26532	116.67204	-328.88535	1176.33472	631.69836	-481.61600	1159.42664	645.07202	-304.88458	1057.52173	670.73969	-440.71310	1053.08350	677.92712	-381.10410	1189.69775	439.95566	-553.18219	1233.35034	367.21545	-502.11942	1243.86084	215.91708	-561.45001	1234.00537	110.15948	-511.69324	1179.65540	116.64359	-498.55914	1294.35999	46.11576	-457.92368	1096.20007	442.18719	-244.14066	1086.69531	348.98206	-296.39294	1046.52454	187.23869	-259.95532	986.55933	111.99274	-299.60013	941.58209	140.46193	-317.08762	1016.89172	33.68076	-350.81445 
46	0.450	1246.18298	368.45752	-455.25134	1132.20325	588.77466	-461.65588	1245.92334	105.15938	-481.43747	1093.07764	350.24307	-342.96802	1119.21301	598.89844	-329.75598	975.72247	117.28464	-329.03110	1185.68848	630.55768	-481.94421	1166.95569	644.10461	-305.40143	1066.34412	668.90649	-442.18024	1061.26404	676.25995	-382.61044	1199.33911	437.73190	-552.59399	1242.55127	365.24890	-500.99530	1259.29846	214.80583	-561.20050	1250.58167	108.28800	-512.94153	1195.62732	113.40426	-501.76053	1310.35376	44.91510	-457.81787	1102.69409	441.13077	-244.54236	1092.85242	347.79941	-296.53275	1049.81226	186.76994	-259.92130	988.79742	112.45444	-299.67184	944.52350	141.79880	-317.49799	1017.37982	33.43886	-350.80264 
47	0.460	1255.05835	366.39764	-454.06915	1142.02673	587.22473	-462.55215	1260.01367	102.76187	-483.16428	1100.04346	348.60934	-343.02991	1127.52405	597.40479	-330.81424	978.47784	117.84425	-329.13004	1195.47327	629.31635	-482.29999	1174.71545	642.93079	-305.98373	1075.53796	666.91626	-443.81439	1069.74573	674.36823	-384.27121	1209.53540	435.48444	-551.99445	1251.89282	363.01929	-499.83557	1274.27686	213.49525	-560.88263	1265.70410	106.32180	-514.45233	1210.22034	110.38123	-505.54449	1324.18750	43.35356	-457.62079	1109.44653	439.89764	-244.93982	1099.46033	346.39340	-296.58640	1053.31238	186.24135	-259.76056	991.26416	112.88320	-299.66565	947.82465	143.15556	-317.90982	1017.91980	33.15661	-350.75809 
48	0.470	1263.84692	364.03531	-452.96124	1152.22729	585.53497	-463.53113	1272.03772	100.27567	-485.31131	1107.55664	346.67676	-342.96564	1136.10693	595.67346	-331.97815	981.56390	118.31615	-329.15051	1205.63330	627.95874	-482.66092	1182.71265	641.50800	-306.61960	1085.05078	664.79431	-445.58511	1078.50830	672.24542	-386.05090	1220.36206	433.39395	-551.45508	1261.43848	360.63562	-498.77213	1288.57300	211.96687	-560.60016	1278.98718	104.29081	-516.28839	1223.07434	107.64911	-509.88239	1335.57288	41.55680	-457.40390	1116.42578	438.47495	-245.31374	1106.51184	344.74695	-296.51740	1057.03406	185.66599	-259.42255	993.98138	113.25608	-299.54556	951.51685	144.52037	-318.28543	1018.50446	32.82763	-350.65933 
49	0.480	1272.53564	361.45480	-452.10040	1162.71729	583.72534	-464.57578	1281.66699	97.79299	-487.93982	1115.60815	344.44257	-342.73392	1144.94312	593.68713	-333.22260	985.00861	118.66396	-329.05136	1216.07922	626.49780	-483.01617	1190.95093	639.79883	-307.29999	1094.79297	662.58948	-447.43546	1087.51135	669.89978	-387.88934	1231.83276	431.66483	-551.07849	1271.21582	358.22830	-497.96808	1301.91199	210.21268	-560.49872	1290.07532	102.23737	-518.49377	1233.86462	105.28524	-514.67371	1344.32922	39.70761	-457.25720	1123.58667	436.86121	-245.65178	1113.98108	342.86169	-296.28928	1060.99414	185.06087	-258.85400	996.97168	113.54881	-299.26938	955.63232	145.87851	-318.56650	1019.12457	32.45161	-350.47998 
50	0.490	1281.07654	358.76111	-451.69293	1173.38428	581.84961	-465.68478	1288.75476	95.43487	-491.03174	1124.16333	341.92603	-342.29953	1154.00623	591.43970	-334.53101	988.83368	118.85575	-328.77832	1226.69116	624.98523	-483.37341	1199.43018	637.77539	-308.01929	1104.64319	660.37506	-449.27957	1096.69556	667.35840	-389.70074	1243.86768	430.49463	-550.99811	1281.18640	355.93448	-497.60587	1313.97498	208.23679	-560.74573	1298.73889	100.21146	-521.05670	1242.38281	103.35058	-519.70453	1350.47119	37.99781	-457.27939	1130.87378	435.07169	-245.95079	1121.82129	340.76065	-295.87311	1065.21460	184.44855	-258.00616	1000.25995	113.74163	-298.78610	960.20093	147.21220	-318.67834	1019.76984	32.03556	-350.19046 
